# xmcd CD database file
#
# Track frame offsets:
#	150
#	14615
#	27707
#	39537
#	55442
#	89145
#	112980
#	126130
#	145260
#	168745
#	180600
#	200140
#
# Disc length: 2868 seconds
#
# Revision: 0
# Processed by: cddbd v1.5.1PL0 Copyright (c) Steve Scherf et al.
# Submitted via: CDex 1.51
#
DISCID=b90b320c
DTITLE=Various Artist - my room is delicious vol.2
DYEAR=2002
DGENRE=Other
TTITLE0=HERMIT/SUNNY DAY
TTITLE1=HERMIT/OWL AND DEAD MAN
TTITLE2=ムームー/BINDERS
TTITLE3=ムームー/OVER AMP
TTITLE4=ASH/12月、午後2時あたり
TTITLE5=ASH/huge cd store
TTITLE6=プレアデス/the ultimate trip
TTITLE7=プレアデス/オートバイ少女
TTITLE8=fragments/DEAR
TTITLE9=fragments/BLUE MOON
TTITLE10=Yamanaka Sawao/Nobody can find me
TTITLE11=Yamanaka Sawao/Clare Butterfly
EXTD=YEAR: 2002
EXTT0=
EXTT1=
EXTT2=
EXTT3=
EXTT4=
EXTT5=
EXTT6=
EXTT7=
EXTT8=
EXTT9=
EXTT10=
EXTT11=
PLAYORDER=
